<svg id="svg" xmlns="http://www.w3.org/2000/svg" xmlns:xlink="http://www.w3.org/1999/xlink" width="400" height="300" viewBox="0, 0, 400,300"><g id="svgg"><path id="path0" d="M59.155 117.865 C 46.470 121.925,37.974 135.811,42.777 144.635 C 46.087 150.717,57.727 152.883,77.976 151.187 C 84.837 150.612,85.155 150.735,87.015 154.681 C 94.878 171.363,84.801 187.597,67.771 185.683 C 56.499 184.417,50.098 181.746,47.750 177.331 C 45.347 172.810,48.438 171.030,52.110 174.820 C 53.534 176.288,55.000 176.712,55.000 175.654 C 55.000 173.947,50.243 170.000,48.186 170.000 C 39.767 170.000,43.286 182.841,52.899 187.200 C 68.864 194.439,86.314 190.830,92.027 179.109 C 96.581 169.766,95.182 153.130,89.368 147.493 L 87.872 146.042 69.594 145.833 L 51.316 145.625 50.253 144.626 C 45.751 140.394,48.987 129.916,56.306 125.029 C 62.354 120.990,67.619 120.440,73.974 123.184 C 78.604 125.183,78.671 125.227,80.376 127.417 C 83.948 132.007,79.908 134.252,74.583 130.636 C 71.671 128.658,70.932 129.678,73.598 131.997 C 81.642 138.994,88.974 134.726,84.331 125.749 C 81.047 119.398,67.561 115.175,59.155 117.865 M264.295 119.031 C 262.065 120.149,259.722 122.141,257.937 124.440 L 256.915 125.756 256.193 124.143 C 254.198 119.686,248.652 122.986,244.479 131.113 C 242.109 135.730,241.756 137.625,242.917 139.504 C 244.702 142.396,248.106 142.551,250.577 139.854 C 251.403 138.951,251.680 138.802,251.463 139.375 C 251.078 140.392,250.126 144.465,249.612 147.292 C 249.403 148.438,249.130 149.656,249.005 150.000 C 248.295 151.942,245.772 168.296,245.822 170.625 C 245.842 171.542,245.589 174.354,245.261 176.875 C 244.255 184.584,245.409 190.730,248.034 191.645 C 252.252 193.116,255.808 190.386,258.206 183.835 C 259.700 179.756,259.249 176.601,257.600 179.598 C 251.695 190.332,247.060 188.846,248.644 176.727 L 248.951 174.375 249.234 176.458 C 249.392 177.626,249.430 176.776,249.320 174.524 C 249.194 171.959,249.363 168.946,249.787 166.191 C 250.152 163.817,250.732 160.000,251.074 157.708 C 252.676 146.989,256.956 132.876,260.072 128.042 C 262.213 124.720,267.495 121.144,268.311 122.464 C 268.547 122.845,268.730 122.869,268.931 122.544 C 270.538 119.944,281.413 128.469,280.274 131.438 C 280.140 131.787,280.230 132.029,280.475 131.974 C 281.568 131.731,286.355 148.891,287.711 157.917 C 288.072 160.323,288.651 164.140,288.998 166.399 C 289.389 168.951,289.552 172.029,289.430 174.524 C 289.320 176.776,289.358 177.626,289.516 176.458 L 289.799 174.375 290.106 176.727 C 291.690 188.846,287.055 190.332,281.150 179.598 C 279.501 176.601,279.050 179.756,280.544 183.835 C 282.942 190.386,286.498 193.116,290.716 191.645 C 293.341 190.730,294.495 184.584,293.489 176.875 C 293.161 174.354,292.908 171.542,292.928 170.625 C 292.978 168.296,290.455 151.942,289.745 150.000 C 289.620 149.656,289.347 148.438,289.138 147.292 C 288.624 144.465,287.672 140.392,287.287 139.375 C 287.070 138.802,287.347 138.951,288.173 139.854 C 290.644 142.551,294.048 142.396,295.833 139.504 C 296.994 137.625,296.641 135.730,294.271 131.113 C 290.098 122.986,284.552 119.686,282.557 124.143 L 281.835 125.756 280.813 124.440 C 276.111 118.386,269.745 116.301,264.295 119.031 M254.658 125.208 C 255.108 125.781,255.759 126.250,256.103 126.250 C 256.578 126.250,256.409 126.827,255.399 128.646 C 254.667 129.964,253.725 132.073,253.306 133.333 C 252.888 134.594,252.535 135.297,252.522 134.896 C 252.501 134.186,251.250 133.816,251.250 134.520 C 251.250 135.043,247.835 138.750,247.354 138.750 C 244.679 138.750,246.025 132.440,249.576 128.333 C 250.270 127.531,250.929 126.591,251.041 126.244 C 251.207 125.727,253.141 124.219,253.690 124.178 C 253.772 124.172,254.207 124.635,254.658 125.208 M286.290 124.882 C 286.956 125.275,287.594 125.885,287.707 126.236 C 287.820 126.587,288.480 127.531,289.174 128.333 C 292.725 132.440,294.071 138.750,291.396 138.750 C 290.915 138.750,287.500 135.043,287.500 134.520 C 287.500 133.816,286.249 134.186,286.228 134.896 C 286.215 135.297,285.862 134.594,285.444 133.333 C 285.025 132.073,284.083 129.964,283.351 128.646 C 282.326 126.799,282.167 126.250,282.658 126.250 C 283.008 126.250,283.631 125.787,284.043 125.221 C 284.945 123.982,284.803 124.003,286.290 124.882 M262.530 134.431 C 260.342 137.213,262.794 142.147,265.179 139.762 C 266.170 138.771,266.056 135.223,265.000 134.167 C 263.911 133.077,263.566 133.114,262.530 134.431 M272.535 133.720 C 271.986 134.067,271.897 135.459,272.205 138.883 C 272.334 140.317,275.206 140.479,275.659 139.077 C 276.840 135.430,274.950 132.191,272.535 133.720 M173.210 143.646 C 173.273 145.880,173.402 154.365,173.497 162.500 C 173.770 185.915,175.002 190.838,180.585 190.830 C 182.996 190.826,203.481 188.612,205.962 188.087 C 206.998 187.868,207.319 186.122,206.506 185.131 C 206.471 185.088,202.696 185.513,198.117 186.076 C 193.538 186.638,187.425 187.216,184.533 187.360 L 179.275 187.621 179.009 184.123 C 178.862 182.199,178.276 172.563,177.706 162.708 C 177.137 152.854,176.561 143.620,176.427 142.188 L 176.184 139.583 174.640 139.583 L 173.096 139.583 173.210 143.646 M159.840 141.248 C 158.951 141.921,158.136 142.559,158.030 142.665 C 157.924 142.771,158.346 145.636,158.968 149.033 C 161.377 162.184,159.324 175.001,153.657 182.193 C 145.083 193.073,137.122 179.584,137.568 154.933 L 137.708 147.158 136.260 146.923 C 134.101 146.573,134.030 146.824,133.831 155.514 C 133.080 188.289,148.077 201.303,159.698 177.961 C 161.123 175.098,162.345 173.026,162.414 173.357 C 162.482 173.688,163.438 177.427,164.539 181.667 L 166.540 189.375 168.270 189.503 C 170.374 189.659,170.388 190.910,168.139 177.986 C 166.256 167.157,162.083 141.304,162.083 140.460 C 162.083 139.748,161.595 139.920,159.840 141.248 M211.481 155.703 C 211.854 176.303,212.249 189.478,212.501 189.691 C 212.615 189.787,213.505 189.783,214.479 189.681 L 216.250 189.496 216.272 173.394 L 216.294 157.292 219.620 163.877 L 222.945 170.463 224.681 170.336 L 226.417 170.208 230.589 159.792 L 234.760 149.375 237.692 169.792 L 240.625 190.208 241.926 190.335 C 243.911 190.528,243.922 190.721,240.646 167.835 C 238.963 156.078,237.458 145.193,237.302 143.646 C 237.062 141.276,236.894 140.833,236.236 140.833 C 233.841 140.833,233.528 141.345,229.071 152.563 C 226.717 158.486,224.698 163.328,224.583 163.322 C 224.469 163.317,222.120 158.207,219.364 151.969 L 214.353 140.625 212.778 140.494 L 211.204 140.364 211.481 155.703 M265.914 141.468 C 264.697 142.349,264.853 143.750,266.250 144.488 C 268.264 145.552,272.500 144.487,272.500 142.917 C 272.500 141.262,267.668 140.199,265.914 141.468 M342.126 142.534 C 334.231 143.139,328.568 144.670,325.282 147.086 C 322.528 149.112,322.449 149.364,323.336 153.363 C 325.033 161.009,326.237 174.405,326.246 185.729 L 326.250 190.833 327.331 190.833 C 329.560 190.833,354.842 187.884,356.015 187.487 C 357.491 186.987,358.750 185.909,358.750 185.144 C 358.750 184.397,355.100 184.413,344.375 185.206 C 339.792 185.544,334.776 185.824,333.229 185.827 L 330.417 185.833 330.417 177.967 L 330.417 170.101 331.563 169.639 C 333.322 168.930,339.489 167.575,342.396 167.259 L 345.000 166.976 345.000 165.382 L 345.000 163.789 342.813 164.027 C 341.609 164.157,338.783 164.617,336.532 165.049 C 334.281 165.480,331.632 165.833,330.645 165.833 L 328.851 165.833 328.352 162.604 C 327.493 157.045,327.302 151.099,327.966 150.554 C 328.511 150.107,331.706 149.332,343.054 146.893 C 345.765 146.310,349.245 145.833,350.787 145.833 C 353.880 145.833,354.925 145.332,355.096 143.765 C 355.276 142.122,351.805 141.792,342.126 142.534 M304.596 144.115 L 293.984 145.208 293.228 147.244 C 292.256 149.863,291.891 149.740,298.958 149.167 C 302.314 148.894,305.139 148.750,305.236 148.847 C 305.332 148.943,305.977 157.893,306.670 168.735 C 308.172 192.248,308.002 191.229,310.438 191.244 C 312.889 191.258,312.901 191.052,311.476 172.866 C 310.217 156.806,309.988 149.280,310.743 148.809 C 311.036 148.626,314.114 148.163,317.581 147.781 C 324.831 146.982,324.303 147.195,323.933 145.221 C 323.422 142.497,321.417 142.383,304.596 144.115 M105.000 143.979 C 104.656 144.052,103.677 144.225,102.824 144.364 C 101.521 144.576,101.031 144.981,99.763 146.890 C 93.504 156.320,95.983 169.756,106.606 183.972 C 113.451 193.132,114.773 193.340,120.452 186.156 C 132.636 170.742,135.637 156.910,128.975 146.873 C 128.139 145.614,127.419 144.582,127.374 144.581 C 127.329 144.580,126.213 144.402,124.895 144.186 C 121.180 143.578,118.185 145.407,115.545 149.896 C 114.973 150.870,114.446 151.667,114.375 151.667 C 114.304 151.667,113.777 150.870,113.205 149.896 C 111.413 146.849,107.413 143.516,105.887 143.798 C 105.743 143.825,105.344 143.906,105.000 143.979 M257.361 146.528 C 256.484 147.405,257.157 149.028,258.854 150.132 C 264.973 154.109,276.293 153.529,280.045 149.045 C 282.027 146.676,280.684 145.510,278.011 147.278 C 272.712 150.785,264.463 150.766,259.715 147.236 C 258.336 146.211,257.830 146.058,257.361 146.528 M109.376 149.212 C 110.397 150.153,111.729 151.938,112.336 153.178 C 113.916 156.409,115.129 156.484,116.237 153.421 C 118.394 147.457,124.830 145.754,127.469 150.450 C 132.499 159.400,127.953 173.818,115.880 187.204 L 114.456 188.784 113.296 187.672 C 111.092 185.561,103.326 174.255,101.835 170.987 C 95.867 157.904,101.417 141.876,109.376 149.212 M68.125 158.927 C 62.137 160.428,56.667 165.294,56.667 169.118 C 56.667 169.565,56.432 170.040,56.146 170.174 C 55.729 170.368,55.729 170.465,56.146 170.660 C 56.432 170.793,56.664 171.215,56.660 171.597 C 56.655 172.188,56.596 172.200,56.266 171.678 C 55.932 171.150,55.841 171.162,55.610 171.763 C 55.304 172.562,55.718 173.454,56.245 173.128 C 56.440 173.008,56.817 173.567,57.082 174.371 C 57.877 176.779,58.529 176.148,59.018 172.500 C 59.897 165.930,64.002 161.998,70.551 161.453 C 74.670 161.109,76.076 161.350,77.927 162.716 C 79.488 163.867,79.969 163.774,79.700 162.371 C 79.204 159.776,72.588 157.807,68.125 158.927 M65.948 164.472 C 64.992 165.107,65.012 167.357,65.978 167.990 C 66.801 168.529,69.167 166.807,69.167 165.669 C 69.167 164.850,66.738 163.947,65.948 164.472 M75.322 164.321 C 75.008 164.635,74.198 165.180,73.521 165.531 C 70.695 167.001,69.535 169.583,71.701 169.583 C 72.978 169.583,76.535 167.554,77.297 166.392 C 78.440 164.648,76.758 162.885,75.322 164.321 M80.639 165.146 C 79.952 165.649,79.958 165.824,80.750 168.463 L 81.586 171.250 80.061 171.250 C 79.222 171.250,77.894 171.066,77.108 170.840 C 75.054 170.251,74.719 172.039,76.660 173.238 C 80.150 175.395,86.569 173.607,84.826 170.964 C 84.551 170.549,83.965 169.113,83.522 167.774 C 82.637 165.095,81.779 164.313,80.639 165.146 M65.000 171.542 C 62.331 172.507,59.838 177.500,62.026 177.500 C 63.380 177.500,67.917 173.537,67.917 172.354 C 67.917 171.425,66.451 171.017,65.000 171.542 M66.979 177.117 C 66.578 177.351,66.250 178.003,66.250 178.568 C 66.250 179.133,66.016 180.014,65.729 180.526 C 65.443 181.039,65.176 181.522,65.136 181.601 C 64.968 181.929,63.333 181.156,63.333 180.749 C 63.333 179.276,60.242 177.778,59.900 179.086 C 59.498 180.625,64.478 185.000,66.634 185.000 C 67.372 185.000,68.394 181.982,68.464 179.595 C 68.544 176.882,68.244 176.382,66.979 177.117 " stroke="none" fill="#000000" fill-rule="evenodd"></path></g></svg>